<?xml version="1.0" encoding="utf-8"?>
<svg version="1.1" xmlns="http://www.w3.org/2000/svg" x="0px" y="0px" viewBox="0 0 256 256"
     enable-background="new 0 0 256 256" xml:space="preserve">
  <g><g><g><path fill="#ffffff" d="M116.8,10.1c-13.9,1.7-26.4,5-36.9,9.7c-37.2,16.9-62.2,49.8-69.1,90.5c-0.7,4.2-0.9,7.9-0.9,17.6c0,13.4,0.5,17.8,3.1,28.5c12.1,48.5,53.6,84.4,103.4,89.2c7.6,0.8,22.1,0.4,29.3-0.7c23.8-3.7,46.3-14.8,63.7-31.5c19.1-18.3,31.3-41.8,35.5-67.9c1.1-6.9,1.4-21.6,0.7-29c-4.8-49.4-40.4-91-88.5-103.2c-9.7-2.5-14.7-3.1-27-3.3C123.7,10,117.8,10,116.8,10.1z M145,21.3c6.8,1.2,16.3,3.7,21.7,5.8c32.5,12.8,56.9,40.1,65.5,73.3c2.7,10.2,3.4,16.2,3.4,27.5c0,11.3-0.7,17.3-3.4,27.5c-9.8,37.4-39.5,67.1-76.9,76.9c-10.2,2.7-16.2,3.4-27.5,3.4c-11.3,0-17.3-0.7-27.5-3.4c-27.3-7.1-50.8-24.9-65.5-49.6C28,171.1,23.4,158.1,21,143.6c-1.2-7.4-1.2-24,0-31.4C25,88.2,35,68.4,51.7,51.7C70,33.4,93.2,22.5,119.2,20.2C124.5,19.7,139.4,20.4,145,21.3z"/><path
    fill="#ffffff"
    d="M125.7,30.8c-1.9,0.9-3.2,3.6-2.8,5.5c0.4,1.9,2.4,3.8,4.3,4c0.8,0.1,4,0.3,7,0.5c25.6,1.3,51.2,16.1,66.1,38.3c9.3,13.7,14.9,30.9,14.9,45.5c0,4.6,0.9,6.7,3.1,7.8c2,1,2.4,1,4.3,0c2.6-1.2,3.2-3.1,2.9-8.7c-1.1-18.7-6.6-35.3-16.5-50.1c-16.8-25-43.9-40.9-73.9-43.1C127.1,29.9,127.5,29.9,125.7,30.8z"/><path
    fill="#ffffff"
    d="M125.2,51.6c-1.7,1.1-2.8,3.7-2.3,5.6c0.1,0.7,0.9,1.8,1.6,2.4c1.2,1,2.1,1.2,6.1,1.4c10.4,0.7,18.3,2.8,26.9,7.1c7.2,3.5,12.6,7.6,18.7,13.8c11.2,11.7,17.3,25.9,18.5,42.9c0.4,5.5,1.1,6.9,3.8,7.8c2.3,0.7,4.8-0.3,5.9-2.5c0.7-1.4,0.8-2.4,0.5-6.8C202.5,84.3,171.1,53,132.1,51C127.3,50.7,126.6,50.8,125.2,51.6z"/><path
    fill="#ffffff"
    d="M124.6,92.1c-5.8,1-7.4,1.4-10.5,2.7c-10.4,4.3-18.5,13.8-21.2,24.9c-1,4.2-1,12.3,0,16.6c2.1,8.6,7.6,16.4,15,21.6c10,6.8,23.7,8,34.9,2.9c18-8.2,26.1-29.6,17.9-47.7c-4.4-9.9-13.9-17.7-24.2-20.1C133.2,92.2,126.5,91.7,124.6,92.1z M134.4,103.1c8.7,2.3,16.1,9.6,18.3,18.3c2.3,8.7-0.3,18.2-6.8,24.6c-10,10-26.1,10-36.2,0c-8.1-8.1-9.8-20.2-4.4-30.3c3-5.7,9.5-10.9,15.8-12.5C124.7,102.2,130.9,102.2,134.4,103.1z"/><path
    fill="#ffffff"
    d="M123.1,113.3c-10.9,4-14.1,17.5-6,25.5c3.1,3.2,6,4.3,10.9,4.3c3.5,0,4.4-0.2,6.6-1.3c3.7-1.9,5.2-3.4,7-6.8c1.5-2.8,1.6-3.4,1.6-7.1c0-4.8-1.2-7.7-4.3-10.9C134.8,113.1,128.1,111.5,123.1,113.3z M130.1,123.4c1.5,0.7,3.1,3.1,3.1,4.5c0,0.3-0.3,1.3-0.8,2.2c-0.9,2-3.5,3.3-5.5,2.9c-1.8-0.4-3.7-2.3-4.1-4.1c-0.4-1.9,0.9-4.6,2.8-5.5C127.6,122.4,128.1,122.4,130.1,123.4z"/><path
    fill="#ffffff"
    d="M58.1,149.6c-1.9,1.2-2.7,3-2.3,5.3c0.4,2.6,5.8,12.9,9.4,17.9c6.3,8.8,16.3,17.7,25.9,22.9c7.3,4,18.1,7.7,20.8,7.2c2.4-0.4,4.1-2.4,4.1-4.8c0-3.3-1.1-4.2-7.5-6.3c-18.1-5.7-32.4-18-40.8-35.3c-1.6-3.2-3.3-6.2-3.8-6.7C62.4,148.6,59.9,148.5,58.1,149.6z"/><path
    fill="#ffffff"
    d="M35.5,150.8c-1,1-1.6,2.1-1.6,2.8c0,0.7,0.8,3.5,1.7,6.2c3.9,11.3,11,23.6,19.1,32.7c13.5,15.2,32.6,26.5,52.3,30.9c6.1,1.4,7.1,1.3,9.1-0.7c1.8-1.8,2.1-3.7,1-6c-0.9-1.8-1.9-2.2-8.7-3.7c-29.1-6.6-53.4-28.4-63.2-56.9c-2-5.8-3-7-6.1-7C37.5,149.2,36.8,149.5,35.5,150.8z"/></g></g></g>
</svg>