<?xml version="1.0" encoding="utf-8"?>
<svg version="1.1" xmlns="http://www.w3.org/2000/svg" x="0px" y="0px" viewBox="0 0 256 256"
     enable-background="new 0 0 256 256" xml:space="preserve">
  <g><g><path fill="#ffffff" d="M128,36.2c18.4,0,32.8,14.4,32.8,32.8s-14.4,32.8-32.8,32.8c-18.4,0-32.8-14.4-32.8-32.8S109.7,36.2,128,36.2 M128,10c-32.8,0-59,26.2-59,59s26.2,59,59,59c32.8,0,59-26.2,59-59S160.8,10,128,10L128,10z M128,167.3c51.1,0,78.7,19.7,78.7,26.2v26.2H49.3v-26.2C49.3,187,76.9,167.3,128,167.3 M128,141.1c-57.7,0-104.9,23.6-104.9,52.5V246h209.8v-52.4C232.9,164.7,185.7,141.1,128,141.1L128,141.1z"/></g></g>
</svg>