<?xml version="1.0" standalone="no"?>
<!DOCTYPE svg PUBLIC "-//W3C//DTD SVG 20010904//EN"
 "http://www.w3.org/TR/2001/REC-SVG-20010904/DTD/svg10.dtd">
<svg version="1.0" xmlns="http://www.w3.org/2000/svg"
 width="512.000000pt" height="512.000000pt" viewBox="0 0 512.000000 512.000000"
 preserveAspectRatio="xMidYMid meet">
<metadata>
Created by potrace 1.11, written by Peter Selinger 2001-2013
</metadata>
<g transform="translate(0.000000,512.000000) scale(0.100000,-0.100000)"
fill="#000000" stroke="none">
<path d="M0 2560 l0 -2560 2560 0 2560 0 0 2560 0 2560 -2560 0 -2560 0 0
-2560z m3857 2012 c7 -4 24 -33 38 -64 25 -54 25 -58 11 -93 -38 -90 -67 -259
-112 -635 -13 -118 -34 -289 -45 -380 -67 -552 -75 -967 -28 -1460 16 -173 15
-170 52 -170 65 0 209 -32 228 -51 23 -23 25 -81 4 -113 -26 -39 -66 -50 -156
-42 l-80 7 6 -123 c10 -206 25 -337 51 -458 73 -340 73 -343 49 -390 -16 -31
-61 -60 -93 -60 -35 0 -69 48 -96 133 -42 134 -66 304 -96 687 -6 74 -15 158
-21 186 l-10 51 -72 7 c-139 13 -425 25 -732 31 l-310 6 -87 -128 c-285 -419
-607 -737 -888 -878 -216 -108 -332 -120 -366 -39 -18 43 -18 68 2 106 33 63
94 87 139 54 17 -12 26 -11 75 10 161 71 354 209 505 361 110 110 176 189 318
377 81 109 94 132 80 137 -10 3 -112 12 -228 18 -222 13 -245 19 -267 66 -13
29 14 88 55 119 26 19 33 19 194 8 93 -7 220 -15 283 -18 l115 -6 36 59 c20
32 74 119 121 193 226 357 742 1293 896 1625 118 254 202 484 258 699 26 101
45 133 95 158 37 19 57 22 76 10z"/>
<path d="M3455 3372 c-151 -298 -325 -618 -503 -922 -148 -255 -313 -529 -353
-586 l-28 -41 377 -6 c207 -4 426 -10 486 -14 l109 -6 -6 31 c-17 86 -29 465
-24 777 6 351 11 427 52 799 14 121 24 221 22 222 -1 1 -60 -113 -132 -254z"/>
</g>
</svg>
